<?xml version="1.0" encoding="UTF-8"?>
<svg id="Layer_2" data-name="Layer 2" xmlns="http://www.w3.org/2000/svg" viewBox="0 0 793.88 793.87">
  <defs>
    <style>
      .cls-1 {
        fill: #fff;
      }

      .cls-2 {
        fill: #e7b339;
      }
    </style>
  </defs>
  <g id="Layer_1-2" data-name="Layer 1">
    <g>
      <path class="cls-1" d="M793.88,396.93c0,120.1-53.34,227.74-137.61,300.53-69.56,60.08-160.2,96.41-259.33,96.41s-189.77-36.33-259.33-96.41C53.34,624.67,0,517.03,0,396.93,0,177.71,177.72,0,396.94,0s396.94,177.71,396.94,396.93Z"/>
      <g>
        <g>
          <path d="M656.27,351.29v346.17c-69.56,60.08-160.2,96.41-259.33,96.41s-189.77-36.33-259.33-96.41V211.23c0-31.47,25.51-56.98,56.98-56.98h252.62c8.52,0,209.05,197.03,209.05,197.03Z"/>
          <circle class="cls-2" cx="318.94" cy="289.08" r="71.1"/>
          <path class="cls-2" d="M417.72,494.14c7.71,0,13.68-6.77,12.7-14.42-7.08-55.27-54.29-97.99-111.49-97.99s-104.41,42.72-111.49,97.99c-.98,7.65,4.99,14.42,12.7,14.42h197.57Z"/>
          <rect class="cls-2" x="206.53" y="566.43" width="393.5" height="54.25" rx="20.63" ry="20.63"/>
          <rect class="cls-2" x="206.53" y="648.41" width="293.36" height="54.25" rx="20.63" ry="20.63"/>
        </g>
        <path class="cls-2" d="M656.27,351.29h-130.85c-43.19,0-78.2-35.01-78.2-78.2v-118.84c8.52,0,209.05,197.03,209.05,197.03Z"/>
      </g>
    </g>
  </g>
</svg>